<svg id="SvgjsSvg1014" width="5000px" height="1686.3430298451076px" xmlns="http://www.w3.org/2000/svg" version="1.1" xmlns:xlink="http://www.w3.org/1999/xlink" xmlns:svgjs="http://svgjs.com/svgjs" viewBox="0 0 330.875 111.59375"><defs id="SvgjsDefs1015"></defs><g id="SvgjsG1017" transform="rotate(0 154.6640625 38.078125)"><svg xmlns="http://www.w3.org/2000/svg" xmlns:xlink="http://www.w3.org/1999/xlink" width="309.328125" viewBox="-2.819999933242798 8.579999923706055 309.3359069824219 76.15999603271484" overflow="visible" style="overflow: visible;" transform="" version="1.1" xmlns:svgjs="http://svgjs.com/svgjs" preserveAspectRatio="none" height="76.15625" x="0" y="0" fill="#000000" stroke="none"><path stroke="none" fill="#000000" d="M17.98 47.87L17.98 47.87L17.98 47.87Q20.93 50.11 26.69 50.11L26.69 50.11L26.94 50.11L26.94 50.11Q30.53 43.46 33.79 37.82L33.79 37.82L33.79 37.82Q24 43.58 17.98 47.87ZM55.74 17.60L55.74 17.60L55.74 17.60Q55.74 15.42 52.80 15.04L52.80 15.04L52.80 15.04Q47.23 21.50 40.51 32.06L40.51 32.06L40.51 32.06Q48 27.58 51.87 24.19L51.87 24.19L51.87 24.19Q55.74 20.80 55.74 17.60ZM25.12 25.25L25.12 25.25L25.12 25.25Q20.67 29.25 17.95 33.76L17.95 33.76L17.95 33.76Q15.23 38.27 15.23 41.54L15.23 41.54L15.23 41.54Q15.23 44.80 16.70 46.66L16.70 46.66L16.70 46.66Q22.72 42.43 35.33 35.14L35.33 35.14L35.33 35.14Q43.01 21.95 49.22 15.04L49.22 15.04L49.22 15.04Q42.50 15.49 36.03 18.37L36.03 18.37L36.03 18.37Q29.57 21.25 25.12 25.25ZM26.24 51.39L26.24 51.39L24.90 51.39L24.90 51.39Q19.26 51.39 15.81 49.41L15.81 49.41L15.81 49.41Q-0.58 61.50-0.58 73.15L-0.58 73.15L-0.58 73.15Q-0.58 80.32 4.42 80.32L4.42 80.32L4.42 80.32Q6.78 80.32 9.22 77.89L9.22 77.89L9.22 77.89Q10.62 76.54 11.74 75.33L11.74 75.33L11.74 75.33Q12.86 74.11 14.50 71.62L14.50 71.62L14.50 71.62Q16.13 69.12 17.18 67.42L17.18 67.42L17.18 67.42Q18.24 65.73 20.16 62.37L20.16 62.37L20.16 62.37Q22.08 59.01 23.07 57.15L23.07 57.15L23.07 57.15Q24.06 55.30 26.24 51.39ZM57.28 17.47L57.28 17.47L57.28 17.47Q57.22 21.25 52.54 25.28L52.54 25.28L52.54 25.28Q47.87 29.31 38.78 34.82L38.78 34.82L38.78 34.82Q33.79 42.88 29.76 49.92L29.76 49.92L29.76 49.92Q35.97 48.96 40.26 45.38L40.26 45.38L40.26 45.38Q40.51 45.18 40.83 45.18L40.83 45.18L40.83 45.18Q41.15 45.18 41.15 45.54L41.15 45.54L41.15 45.54Q41.15 45.89 39.74 46.94L39.74 46.94L39.74 46.94Q38.34 48 35.36 49.28L35.36 49.28L35.36 49.28Q32.38 50.56 29.12 51.07L29.12 51.07L29.12 51.07Q18.94 68.35 15.10 73.22L15.10 73.22L15.10 73.22Q9.92 79.81 6.78 81.54L6.78 81.54L6.78 81.54Q4.86 82.56 3.07 82.56L3.07 82.56L3.07 82.56Q0.32 82.56-1.25 80.13L-1.25 80.13L-1.25 80.13Q-2.82 77.70-2.82 74.62L-2.82 74.62L-2.82 74.62Q-2.82 61.18 14.40 48.32L14.40 48.32L14.40 48.32Q11.90 46.08 11.90 42.21L11.90 42.21L11.90 42.21Q11.90 38.34 14.88 33.57L14.88 33.57L14.88 33.57Q17.86 28.80 22.82 24.58L22.82 24.58L22.82 24.58Q27.78 20.35 35.10 17.34L35.10 17.34L35.10 17.34Q42.43 14.34 50.24 13.89L50.24 13.89L50.24 13.89Q53.25 10.75 55.49 9.09L55.49 9.09L55.49 9.09Q56.26 8.58 57.44 8.58L57.44 8.58L57.44 8.58Q58.62 8.58 58.62 9.22L58.62 9.22L58.62 9.22Q58.62 9.54 57.73 10.18L57.73 10.18L57.73 10.18Q56.83 10.82 56.38 11.20L56.38 11.20L53.76 13.95L53.76 13.95Q55.23 14.27 56.26 15.30L56.26 15.30L56.26 15.30Q57.28 16.32 57.28 17.47ZM48.26 52.48L48.26 52.48L48.26 52.48Q51.84 52.48 56.83 48.45L56.83 48.45L57.92 48.77L57.92 48.77Q51.65 54.02 47.10 54.02L47.10 54.02L47.10 54.02Q46.59 54.02 46.34 53.95L46.34 53.95L46.34 53.95Q44.61 56.06 42.56 57.38L42.56 57.38L42.56 57.38Q40.51 58.69 38.98 58.69L38.98 58.69L38.98 58.69Q36.54 58.69 36.54 55.97L36.54 55.97L36.54 55.97Q36.54 53.25 41.09 48.70L41.09 48.70L41.09 48.70Q40.32 46.85 40.32 44.80L40.32 44.80L40.32 44.80Q40.32 42.75 41.79 41.47L41.79 41.47L41.79 41.47Q43.26 40.19 45.22 40.19L45.22 40.19L45.22 40.19Q47.17 40.19 48.51 41.47L48.51 41.47L48.51 41.47Q49.86 42.75 49.86 45.12L49.86 45.12L49.86 45.12Q49.86 48.77 47.49 52.42L47.49 52.42L47.49 52.42Q47.74 52.48 48.26 52.48ZM46.21 51.84L46.21 51.84L46.21 51.84Q48.19 48.51 48.19 46.18L48.19 46.18L48.19 46.18Q48.19 43.84 47.04 42.72L47.04 42.72L47.04 42.72Q45.89 41.60 44.80 41.60L44.80 41.60L44.80 41.60Q42.56 41.60 42.56 43.90L42.56 43.90L42.56 43.90Q42.56 46.21 43.58 48.48L43.58 48.48L43.58 48.48Q44.61 50.75 46.21 51.84ZM39.17 55.62L39.17 55.62L39.17 55.62Q39.17 56.90 40.83 56.90L40.83 56.90L40.83 56.90Q42.50 56.90 45.06 53.50L45.06 53.50L45.06 53.50Q43.33 52.61 41.98 50.37L41.98 50.37L41.98 50.37Q39.17 53.44 39.17 55.62ZM70.91 48.45L72.26 47.36L72.26 47.36Q72.70 47.04 73.09 47.04L73.09 47.04L73.09 47.04Q73.47 47.04 73.47 47.49L73.47 47.49L73.47 47.62L73.47 47.62Q68.67 51.46 64 54.82L64 54.82L64 54.82Q59.33 58.18 57.15 58.18L57.15 58.18L57.15 58.18Q55.55 58.18 55.55 56.45L55.55 56.45L55.55 56.45Q55.55 54.72 57.09 52.99L57.09 52.99L57.09 52.99Q58.62 51.26 60.13 49.98L60.13 49.98L60.13 49.98Q61.63 48.70 61.63 48.29L61.63 48.29L61.63 48.29Q61.63 47.87 61.15 47.33L61.15 47.33L61.15 47.33Q60.67 46.78 60.35 46.59L60.35 46.59L60.35 46.59Q59.26 47.68 55.62 50.56L55.62 50.56L55.36 49.60L55.36 49.60Q59.39 46.40 60.03 45.31L60.03 45.31L60.03 44.74L60.03 44.74Q60.03 43.14 60.35 42.56L60.35 42.56L60.35 42.56Q60.67 41.98 61.89 40.96L61.89 40.96L61.89 40.96Q63.10 39.94 63.55 39.94L63.55 39.94L63.55 39.94Q64 39.94 64.35 40.26L64.35 40.26L64.35 40.26Q64.70 40.58 64.70 40.90L64.70 40.90L64.70 40.90Q64.70 41.22 64.48 41.63L64.48 41.63L64.48 41.63Q64.26 42.05 64.03 42.34L64.03 42.34L64.03 42.34Q63.81 42.62 63.42 43.04L63.42 43.04L63.42 43.04Q63.04 43.46 62.94 43.62L62.94 43.62L62.94 43.62Q62.85 43.78 62.75 44.16L62.75 44.16L62.75 44.16Q62.66 44.54 62.34 44.80L62.34 44.80L62.34 44.80Q62.02 45.06 62.02 45.44L62.02 45.44L62.02 45.44Q62.02 45.82 62.53 47.14L62.53 47.14L62.53 47.14Q63.04 48.45 63.04 49.06L63.04 49.06L63.04 49.06Q63.04 49.66 60.67 51.94L60.67 51.94L60.67 51.94Q58.30 54.21 58.30 55.62L58.30 55.62L58.30 55.62Q58.30 56.38 59.01 56.38L59.01 56.38L59.01 56.38Q59.90 56.38 62.34 54.78L62.34 54.78L63.10 54.27L63.10 54.27Q67.26 51.39 70.91 48.45L70.91 48.45ZM76.86 48.83L76.86 48.83L78.91 45.70L78.91 45.70Q78.72 45.63 78.53 45.63L78.53 45.63L78.53 45.63Q75.84 45.63 71.49 49.73L71.49 49.73L71.49 49.73Q67.14 53.82 67.14 55.49L67.14 55.49L67.14 55.49Q67.14 55.94 67.65 55.94L67.65 55.94L67.65 55.94Q69.25 55.94 72.51 53.22L72.51 53.22L72.51 53.22Q75.78 50.50 76.86 48.83ZM91.14 47.49L91.14 47.62L91.14 47.62Q77.82 58.37 75.01 58.37L75.01 58.37L75.01 58.37Q73.92 58.37 73.92 57.09L73.92 57.09L73.92 57.09Q73.92 55.81 74.88 52.80L74.88 52.80L74.88 52.80Q74.88 52.74 74.75 52.74L74.75 52.74L74.75 52.74Q67.39 58.82 64.96 58.82L64.96 58.82L64.96 58.82Q63.30 58.82 63.30 57.60L63.30 57.60L63.30 57.60Q63.30 54.91 69.09 49.73L69.09 49.73L69.09 49.73Q74.88 44.54 78.34 44.54L78.34 44.54L78.34 44.54Q78.78 44.54 79.30 45.18L79.30 45.18L79.30 45.18Q80.77 43.01 95.81 21.57L95.81 21.57L95.81 21.57Q97.41 19.58 98.40 19.58L98.40 19.58L98.40 19.58Q99.39 19.58 99.39 20.22L99.39 20.22L99.39 20.22Q99.39 21.82 88.38 35.33L88.38 35.33L88.38 35.33Q84.29 40.45 80.86 45.98L80.86 45.98L80.86 45.98Q77.44 51.52 77.44 54.40L77.44 54.40L77.44 54.40Q77.44 55.62 78.14 55.62L78.14 55.62L78.14 55.62Q78.98 55.62 81.09 54.14L81.09 54.14L81.09 54.14Q85.44 51.01 88.70 48.38L88.70 48.38L89.92 47.36L89.92 47.36Q90.37 47.04 90.75 47.04L90.75 47.04L90.75 47.04Q91.14 47.04 91.14 47.49L91.14 47.49ZM96.51 50.30L96.51 50.30L96.51 50.30Q96.13 50.30 96.13 50.02L96.13 50.02L96.13 50.02Q96.13 49.73 96.58 49.34L96.58 49.34L96.58 49.34Q98.69 47.62 98.69 46.21L98.69 46.21L98.69 46.21Q98.69 45.31 97.09 45.18L97.09 45.18L97.09 45.18Q94.21 45.25 90.21 49.34L90.21 49.34L90.21 49.34Q86.21 53.44 86.21 55.49L86.21 55.49L86.21 55.49Q86.21 56.19 87.01 56.19L87.01 56.19L87.01 56.19Q87.81 56.19 89.15 55.10L89.15 55.10L89.15 55.10Q90.37 54.34 93.70 51.26L93.70 51.26L93.70 51.26Q94.46 50.50 95.17 50.50L95.17 50.50L95.17 50.50Q96.06 50.50 96.06 51.33L96.06 51.33L96.06 51.33Q96.06 51.65 95.87 51.84L95.87 51.84L95.87 51.84Q95.68 52.03 95.17 52.64L95.17 52.64L95.17 52.64Q94.66 53.25 94.27 53.76L94.27 53.76L94.27 53.76Q93.12 55.42 93.12 55.94L93.12 55.94L93.12 55.94Q93.12 57.22 94.14 57.22L94.14 57.22L94.14 57.22Q95.49 57.22 99.20 54.75L99.20 54.75L99.20 54.75Q102.91 52.29 105.98 49.79L105.98 49.79L109.06 47.36L109.06 47.36Q109.50 47.04 109.89 47.04L109.89 47.04L109.89 47.04Q110.27 47.04 110.27 47.49L110.27 47.49L110.27 47.62L110.27 47.62Q105.34 51.78 99.87 55.42L99.87 55.42L99.87 55.42Q94.40 59.07 92.67 59.07L92.67 59.07L92.67 59.07Q90.62 59.07 90.62 56.90L90.62 56.90L90.62 56.90Q90.62 56.38 90.82 55.94L90.82 55.94L90.82 55.94Q91.01 55.49 91.01 55.30L91.01 55.30L91.01 55.30Q91.01 55.10 90.88 55.04L90.88 55.04L90.88 55.04Q90.69 55.04 88.42 56.77L88.42 56.77L88.42 56.77Q86.14 58.50 84.45 58.50L84.45 58.50L84.45 58.50Q82.75 58.50 82.75 56.70L82.75 56.70L82.75 56.70Q82.75 54.91 85.15 51.87L85.15 51.87L85.15 51.87Q87.55 48.83 91.58 46.34L91.58 46.34L91.58 46.34Q95.62 43.84 99.46 43.84L99.46 43.84L99.46 43.84Q100.35 43.84 100.96 44.29L100.96 44.29L100.96 44.29Q101.57 44.74 101.57 45.66L101.57 45.66L101.57 45.66Q101.57 46.59 99.71 48.45L99.71 48.45L99.71 48.45Q97.86 50.30 96.51 50.30ZM135.04 47.36L135.04 47.55L135.04 47.55Q121.54 58.82 118.34 58.82L118.34 58.82L118.34 58.82Q116.48 58.82 116.48 57.28L116.48 57.28L116.48 57.28Q116.48 55.74 117.86 53.63L117.86 53.63L117.86 53.63Q119.23 51.52 120.61 49.89L120.61 49.89L120.61 49.89Q121.98 48.26 121.98 47.94L121.98 47.94L121.98 47.94Q121.98 47.62 121.79 47.62L121.79 47.62L121.79 47.62Q115.84 51.58 114.72 52.48L114.72 52.48L114.72 52.48Q113.60 53.38 111.07 55.42L111.07 55.42L111.07 55.42Q108.54 57.47 107.78 57.98L107.78 57.98L107.78 57.98Q107.01 58.50 106.11 58.50L106.11 58.50L106.11 58.50Q105.22 58.50 105.22 57.73L105.22 57.73L105.22 57.73Q105.22 56.83 108.80 52.10L108.80 52.10L108.80 52.10Q112.26 47.36 112.26 46.78L112.26 46.78L112.26 46.78Q112.26 46.66 112.03 46.66L112.03 46.66L112.03 46.66Q111.81 46.66 106.50 50.56L106.50 50.56L106.24 49.60L106.24 49.60Q110.78 45.95 112.38 44.93L112.38 44.93L112.38 44.93Q113.98 43.90 114.98 43.90L114.98 43.90L114.98 43.90Q115.97 43.90 115.97 44.86L115.97 44.86L115.97 44.86Q115.97 45.50 112.35 50.08L112.35 50.08L112.35 50.08Q108.74 54.66 108.74 55.01L108.74 55.01L108.74 55.01Q108.74 55.36 108.96 55.36L108.96 55.36L108.96 55.36Q109.18 55.36 116.26 50.21L116.26 50.21L116.26 50.21Q123.33 45.06 124.86 45.06L124.86 45.06L124.86 45.06Q125.31 45.06 125.73 45.41L125.73 45.41L125.73 45.41Q126.14 45.76 126.14 46.08L126.14 46.08L126.14 46.08Q126.14 46.85 122.75 51.17L122.75 51.17L122.75 51.17Q119.36 55.49 119.36 56.06L119.36 56.06L119.36 56.06Q119.36 56.64 120.16 56.64L120.16 56.64L120.16 56.64Q120.96 56.64 123.58 54.91L123.58 54.91L123.58 54.91Q128.38 51.78 132.42 48.45L132.42 48.45L133.82 47.30L133.82 47.30Q134.27 46.98 134.66 46.98L134.66 46.98L134.66 46.98Q135.04 46.98 135.04 47.36L135.04 47.36ZM142.85 59.01L142.85 59.01L142.85 59.01Q141.57 59.01 141.57 57.73L141.57 57.73L141.57 57.73Q141.57 54.27 149.34 44.61L149.34 44.61L149.34 44.61Q157.12 34.94 165.57 27.97L165.57 27.97L165.57 27.97Q168.64 21.50 168.64 17.92L168.64 17.92L168.64 17.92Q168.64 13.63 164.35 13.63L164.35 13.63L164.35 13.63Q160.32 13.63 154.85 17.66L154.85 17.66L154.85 17.66Q149.38 21.70 145.60 26.66L145.60 26.66L145.60 26.66Q141.82 31.62 141.82 34.43L141.82 34.43L141.82 34.43Q141.82 36.48 144.19 36.48L144.19 36.48L144.19 36.48Q147.58 36.48 151.58 33.02L151.58 33.02L151.58 33.02Q155.58 29.57 157.57 26.30L157.57 26.30L157.57 26.30Q158.27 25.15 158.72 25.15L158.72 25.15L158.72 25.15Q159.17 25.15 159.17 25.60L159.17 25.60L159.17 25.60Q159.17 26.05 158.91 26.37L158.91 26.37L158.91 26.37Q156.74 29.63 152.00 33.86L152.00 33.86L152.00 33.86Q147.26 38.08 143.36 38.08L143.36 38.08L143.36 38.08Q139.46 38.08 139.46 35.20L139.46 35.20L139.46 35.20Q139.46 32.70 142.14 28.74L142.14 28.74L142.14 28.74Q144.83 24.77 148.70 21.09L148.70 21.09L148.70 21.09Q152.58 17.41 157.41 14.75L157.41 14.75L157.41 14.75Q162.24 12.10 166.02 12.10L166.02 12.10L166.02 12.10Q170.94 12.10 170.94 16.96L170.94 16.96L170.94 16.96Q170.94 20.16 168.64 25.60L168.64 25.60L168.64 25.60Q174.98 20.93 178.82 20.93L178.82 20.93L178.82 20.93Q181.12 20.93 181.12 23.36L181.12 23.36L181.12 23.36Q181.12 25.79 176.83 32.80L176.83 32.80L176.83 32.80Q172.54 39.81 168.26 45.44L168.26 45.44L163.97 51.14L163.97 51.14Q163.97 51.26 164.03 51.26L164.03 51.26L164.03 51.26Q166.46 49.60 172.58 43.97L172.58 43.97L172.58 43.97Q178.69 38.34 183.84 34.24L183.84 34.24L183.84 34.24Q188.99 30.14 191.49 30.14L191.49 30.14L191.49 30.14Q192.96 30.14 192.96 31.62L192.96 31.62L192.96 31.62Q192.96 33.09 189.12 38.21L189.12 38.21L189.12 38.21Q185.28 43.33 181.44 48.70L181.44 48.70L181.44 48.70Q177.60 54.08 177.60 56.13L177.60 56.13L177.60 56.13Q177.60 58.18 179.33 58.18L179.33 58.18L179.33 58.18Q181.31 58.18 184.51 56.16L184.51 56.16L184.51 56.16Q187.71 54.14 188.99 52.93L188.99 52.93L188.99 52.93Q190.27 51.71 190.59 51.71L190.59 51.71L190.59 51.71Q190.91 51.71 190.91 51.97L190.91 51.97L190.91 51.97Q190.91 52.74 188.77 54.59L188.77 54.59L188.77 54.59Q186.62 56.45 183.39 58.11L183.39 58.11L183.39 58.11Q180.16 59.78 177.86 59.78L177.86 59.78L177.86 59.78Q174.78 59.78 174.78 57.25L174.78 57.25L174.78 57.25Q174.78 54.72 176.93 51.07L176.93 51.07L176.93 51.07Q179.07 47.42 181.63 44.29L181.63 44.29L181.63 44.29Q188.93 35.58 189.76 32.77L189.76 32.77L189.76 32.77Q189.76 32.06 189.12 32.06L189.12 32.06L189.12 32.06Q187.58 32.06 179.65 38.98L179.65 38.98L179.65 38.98Q171.71 45.89 168.00 49.47L168.00 49.47L168.00 49.47Q164.29 53.06 163.01 54.34L163.01 54.34L163.01 54.34Q161.73 55.62 161.02 56.38L161.02 56.38L161.02 56.38Q160.32 57.15 159.62 57.79L159.62 57.79L159.62 57.79Q158.27 59.01 157.82 59.01L157.82 59.01L157.82 59.01Q157.76 59.01 157.70 58.94L157.70 58.94L157.70 58.94Q157.12 58.69 157.12 58.05L157.12 58.05L157.12 58.05Q157.12 56.45 161.22 51.33L161.22 51.33L161.22 51.33Q168.45 42.37 173.54 34.30L173.54 34.30L173.54 34.30Q178.62 26.24 178.62 23.55L178.62 23.55L178.62 23.55Q178.62 22.53 177.34 22.53L177.34 22.53L177.34 22.53Q174.21 22.53 167.49 28.16L167.49 28.16L167.49 28.16Q162.62 38.14 154.18 48.58L154.18 48.58L154.18 48.58Q145.73 59.01 142.85 59.01ZM144.26 57.34L144.26 57.34L144.26 57.34Q145.92 57.34 152.64 48.61L152.64 48.61L152.64 48.61Q159.36 39.87 163.97 31.23L163.97 31.23L163.97 31.23Q156.67 37.95 150.11 46.11L150.11 46.11L150.11 46.11Q143.55 54.27 143.55 56.64L143.55 56.64L143.55 56.64Q143.55 57.34 144.26 57.34ZM203.97 50.30L203.97 50.30L203.97 50.30Q203.58 50.30 203.58 50.02L203.58 50.02L203.58 50.02Q203.58 49.73 204.03 49.34L204.03 49.34L204.03 49.34Q206.14 47.62 206.14 46.21L206.14 46.21L206.14 46.21Q206.14 45.31 204.54 45.18L204.54 45.18L204.54 45.18Q201.66 45.25 197.66 49.34L197.66 49.34L197.66 49.34Q193.66 53.44 193.66 55.49L193.66 55.49L193.66 55.49Q193.66 56.19 194.46 56.19L194.46 56.19L194.46 56.19Q195.26 56.19 196.61 55.10L196.61 55.10L196.61 55.10Q197.82 54.34 201.15 51.26L201.15 51.26L201.15 51.26Q201.92 50.50 202.62 50.50L202.62 50.50L202.62 50.50Q203.52 50.50 203.52 51.33L203.52 51.33L203.52 51.33Q203.52 51.65 203.33 51.84L203.33 51.84L203.33 51.84Q203.14 52.03 202.62 52.64L202.62 52.64L202.62 52.64Q202.11 53.25 201.73 53.76L201.73 53.76L201.73 53.76Q200.58 55.42 200.58 55.94L200.58 55.94L200.58 55.94Q200.58 57.22 201.60 57.22L201.60 57.22L201.60 57.22Q202.94 57.22 206.66 54.75L206.66 54.75L206.66 54.75Q210.37 52.29 213.44 49.79L213.44 49.79L216.51 47.36L216.51 47.36Q216.96 47.04 217.34 47.04L217.34 47.04L217.34 47.04Q217.73 47.04 217.73 47.49L217.73 47.49L217.73 47.62L217.73 47.62Q212.80 51.78 207.33 55.42L207.33 55.42L207.33 55.42Q201.86 59.07 200.13 59.07L200.13 59.07L200.13 59.07Q198.08 59.07 198.08 56.90L198.08 56.90L198.08 56.90Q198.08 56.38 198.27 55.94L198.27 55.94L198.27 55.94Q198.46 55.49 198.46 55.30L198.46 55.30L198.46 55.30Q198.46 55.10 198.34 55.04L198.34 55.04L198.34 55.04Q198.14 55.04 195.87 56.77L195.87 56.77L195.87 56.77Q193.60 58.50 191.90 58.50L191.90 58.50L191.90 58.50Q190.21 58.50 190.21 56.70L190.21 56.70L190.21 56.70Q190.21 54.91 192.61 51.87L192.61 51.87L192.61 51.87Q195.01 48.83 199.04 46.34L199.04 46.34L199.04 46.34Q203.07 43.84 206.91 43.84L206.91 43.84L206.91 43.84Q207.81 43.84 208.42 44.29L208.42 44.29L208.42 44.29Q209.02 44.74 209.02 45.66L209.02 45.66L209.02 45.66Q209.02 46.59 207.17 48.45L207.17 48.45L207.17 48.45Q205.31 50.30 203.97 50.30ZM230.85 40L230.85 40L230.85 40Q230.85 39.42 230.05 39.42L230.05 39.42L230.05 39.42Q229.25 39.42 226.88 41.12L226.88 41.12L226.88 41.12Q224.51 42.82 222.59 44.54L222.59 44.54L220.74 46.21L220.74 46.21Q220.74 46.34 221.12 46.34L221.12 46.34L221.12 46.34Q221.76 46.34 221.95 47.33L221.95 47.33L221.95 47.33Q222.14 48.32 222.66 48.32L222.66 48.32L222.66 48.32Q224.32 48.32 227.58 44.93L227.58 44.93L227.58 44.93Q230.85 41.54 230.85 40ZM235.33 48.64L236.93 47.36L236.93 47.36Q237.38 47.04 237.76 47.04L237.76 47.04L237.76 47.04Q238.14 47.04 238.14 47.49L238.14 47.49L238.14 47.62L238.14 47.62Q233.09 52.10 228.03 55.30L228.03 55.30L228.03 55.30Q224.26 58.11 221.92 58.11L221.92 58.11L221.92 58.11Q219.58 58.11 218.66 56.38L218.66 56.38L218.66 56.38Q217.73 54.66 217.73 52.77L217.73 52.77L217.73 52.77Q217.73 50.88 218.11 50.18L218.11 50.18L218.11 50.18Q218.50 49.47 218.50 49.31L218.50 49.31L218.50 49.31Q218.50 49.15 218.11 49.15L218.11 49.15L218.11 49.15Q217.54 49.15 214.14 53.57L214.14 53.57L214.14 53.57Q210.75 57.98 210.37 57.98L210.37 57.98L210.37 57.98Q209.98 57.98 209.63 57.76L209.63 57.76L209.63 57.76Q209.28 57.54 209.28 57.15L209.28 57.15L209.28 57.15Q209.28 56.77 210.21 55.30L210.21 55.30L210.21 55.30Q211.14 53.82 216.26 46.66L216.26 46.66L216.26 46.66Q221.38 39.49 221.57 39.14L221.57 39.14L221.57 39.14Q221.76 38.78 221.76 38.66L221.76 38.66L221.76 38.66Q221.76 38.53 221.54 38.53L221.54 38.53L221.54 38.53Q221.31 38.53 221.18 38.62L221.18 38.62L221.18 38.62Q221.06 38.72 219.26 39.94L219.26 39.94L219.26 39.94Q215.23 42.69 213.70 42.69L213.70 42.69L213.70 42.69Q212.16 42.69 212.16 41.47L212.16 41.47L212.16 41.47Q212.16 40.45 212.83 39.68L212.83 39.68L212.83 39.68Q213.50 38.91 214.34 38.91L214.34 38.91L214.34 38.91Q214.72 38.91 214.98 39.78L214.98 39.78L214.98 39.78Q215.23 40.64 215.81 40.64L215.81 40.64L215.81 40.64Q216.38 40.64 217.22 40.19L217.22 40.19L217.22 40.19Q218.05 39.74 218.91 39.10L218.91 39.10L218.91 39.10Q219.78 38.46 220.90 37.54L220.90 37.54L220.90 37.54Q222.02 36.61 222.72 35.97L222.72 35.97L222.72 35.97Q224.83 34.05 225.28 33.60L225.28 33.60L225.28 33.60Q226.50 31.55 234.50 21.89L234.50 21.89L234.50 21.89Q235.46 20.67 236.38 20.67L236.38 20.67L236.38 20.67Q237.31 20.67 237.31 21.12L237.31 21.12L237.31 21.12Q237.31 21.57 236.99 21.98L236.99 21.98L236.99 21.98Q236.67 22.40 232.19 28.19L232.19 28.19L232.19 28.19Q227.71 33.98 223.17 40.03L223.17 40.03L223.17 40.03Q218.62 46.08 218.62 46.46L218.62 46.46L218.62 46.46Q218.62 46.85 218.94 46.85L218.94 46.85L218.94 46.85Q219.90 45.82 221.41 44.32L221.41 44.32L221.41 44.32Q222.91 42.82 226.56 40.29L226.56 40.29L226.56 40.29Q230.21 37.76 232.35 37.76L232.35 37.76L232.35 37.76Q234.50 37.76 234.50 38.91L234.50 38.91L234.50 38.91Q234.50 41.02 229.57 45.18L229.57 45.18L229.57 45.18Q224.64 49.34 222.72 49.34L222.72 49.34L221.50 49.09L221.50 49.09Q220.93 49.09 220.54 50.08L220.54 50.08L220.54 50.08Q220.16 51.07 220.16 52.35L220.16 52.35L220.16 52.35Q220.16 56.26 223.10 56.26L223.10 56.26L223.10 56.26Q224.64 56.26 226.56 55.04L226.56 55.04L226.56 55.04Q230.66 52.54 235.33 48.64L235.33 48.64ZM251.78 48.70L253.38 47.36L253.38 47.36Q253.82 47.04 254.21 47.04L254.21 47.04L254.21 47.04Q254.59 47.04 254.59 47.49L254.59 47.49L254.59 47.62L254.59 47.62Q247.94 53.12 243.52 55.87L243.52 55.87L243.52 55.87Q239.10 58.62 235.52 58.62L235.52 58.62L235.52 58.62Q232.64 58.62 232.64 55.81L232.64 55.81L232.64 55.81Q232.64 51.65 236.86 47.26L236.86 47.26L236.86 47.26Q241.09 42.88 243.97 42.88L243.97 42.88L243.97 42.88Q245.57 42.88 245.57 44.67L245.57 44.67L245.57 44.67Q245.25 48.19 235.46 54.14L235.46 54.14L235.46 54.78L235.46 54.78Q235.46 56.90 237.66 56.90L237.66 56.90L237.66 56.90Q239.87 56.90 242.43 55.42L242.43 55.42L242.43 55.42Q247.42 52.48 251.78 48.70L251.78 48.70ZM242.30 44.86L242.30 44.86L242.30 44.86Q240.90 44.86 238.69 47.23L238.69 47.23L238.69 47.23Q236.48 49.60 235.71 52.61L235.71 52.61L235.71 52.61Q238.78 50.75 240.90 48.67L240.90 48.67L240.90 48.67Q243.01 46.59 243.01 45.73L243.01 45.73L243.01 45.73Q243.01 44.86 242.30 44.86ZM279.42 47.36L279.42 47.55L279.42 47.55Q265.92 58.82 262.72 58.82L262.72 58.82L262.72 58.82Q260.86 58.82 260.86 57.28L260.86 57.28L260.86 57.28Q260.86 55.74 262.24 53.63L262.24 53.63L262.24 53.63Q263.62 51.52 264.99 49.89L264.99 49.89L264.99 49.89Q266.37 48.26 266.37 47.94L266.37 47.94L266.37 47.94Q266.37 47.62 266.18 47.62L266.18 47.62L266.18 47.62Q260.22 51.58 259.10 52.48L259.10 52.48L259.10 52.48Q257.98 53.38 255.46 55.42L255.46 55.42L255.46 55.42Q252.93 57.47 252.16 57.98L252.16 57.98L252.16 57.98Q251.39 58.50 250.50 58.50L250.50 58.50L250.50 58.50Q249.60 58.50 249.60 57.73L249.60 57.73L249.60 57.73Q249.60 56.83 253.18 52.10L253.18 52.10L253.18 52.10Q256.64 47.36 256.64 46.78L256.64 46.78L256.64 46.78Q256.64 46.66 256.42 46.66L256.42 46.66L256.42 46.66Q256.19 46.66 250.88 50.56L250.88 50.56L250.62 49.60L250.62 49.60Q255.17 45.95 256.77 44.93L256.77 44.93L256.77 44.93Q258.37 43.90 259.36 43.90L259.36 43.90L259.36 43.90Q260.35 43.90 260.35 44.86L260.35 44.86L260.35 44.86Q260.35 45.50 256.74 50.08L256.74 50.08L256.74 50.08Q253.12 54.66 253.12 55.01L253.12 55.01L253.12 55.01Q253.12 55.36 253.34 55.36L253.34 55.36L253.34 55.36Q253.57 55.36 260.64 50.21L260.64 50.21L260.64 50.21Q267.71 45.06 269.25 45.06L269.25 45.06L269.25 45.06Q269.70 45.06 270.11 45.41L270.11 45.41L270.11 45.41Q270.53 45.76 270.53 46.08L270.53 46.08L270.53 46.08Q270.53 46.85 267.14 51.17L267.14 51.17L267.14 51.17Q263.74 55.49 263.74 56.06L263.74 56.06L263.74 56.06Q263.74 56.64 264.54 56.64L264.54 56.64L264.54 56.64Q265.34 56.64 267.97 54.91L267.97 54.91L267.97 54.91Q272.77 51.78 276.80 48.45L276.80 48.45L278.21 47.30L278.21 47.30Q278.66 46.98 279.04 46.98L279.04 46.98L279.04 46.98Q279.42 46.98 279.42 47.36L279.42 47.36ZM261.63 83.07L261.63 83.07L261.63 83.07Q263.17 83.07 266.75 79.49L266.75 79.49L266.75 79.49Q270.34 75.90 273.60 70.82L273.60 70.82L273.60 70.82Q276.86 65.73 277.31 62.21L277.31 62.21L277.31 62.21Q270.72 66.50 265.82 71.90L265.82 71.90L265.82 71.90Q260.93 77.31 260.93 82.11L260.93 82.11L260.93 82.11Q260.93 83.07 261.63 83.07ZM282.40 57.95L282.40 57.95L282.40 57.95Q284.10 57.15 284.61 57.15L284.61 57.15L284.61 57.15Q285.12 57.15 285.12 57.60L285.12 57.60L285.12 57.60Q285.12 58.05 284.35 58.37L284.35 58.37L284.35 58.37Q282.24 59.14 279.42 60.93L279.42 60.93L279.42 61.25L279.42 61.25Q279.42 65.09 275.46 70.85L275.46 70.85L275.46 70.85Q271.49 76.61 266.85 80.67L266.85 80.67L266.85 80.67Q262.21 84.74 260.03 84.74L260.03 84.74L260.03 84.74Q258.37 84.74 258.37 82.88L258.37 82.88L258.37 82.88Q258.37 80.19 260.19 77.02L260.19 77.02L260.19 77.02Q262.02 73.86 264.96 70.91L264.96 70.91L264.96 70.91Q270.72 64.96 277.44 60.74L277.44 60.74L277.44 60.74Q277.12 57.41 273.15 57.15L273.15 57.15L273.15 57.15Q272.19 57.15 272.19 56.58L272.19 56.58L272.19 56.58Q272.19 56.38 273.09 55.84L273.09 55.84L273.09 55.84Q273.98 55.30 275.97 54.08L275.97 54.08L275.97 54.08Q277.95 52.86 280.90 50.34L280.90 50.34L280.90 50.34Q283.84 47.81 283.84 46.34L283.84 46.34L283.84 46.34Q283.84 45.63 283.20 45.63L283.20 45.63L283.20 45.63Q281.73 45.63 277.57 48.96L277.57 48.96L275.58 50.56L275.33 49.60L275.33 49.60Q276.10 49.02 277.06 48.26L277.06 48.26L277.06 48.26Q282.82 43.52 285.63 43.52L285.63 43.52L285.63 43.52Q287.36 43.52 287.36 45.38L287.36 45.38L287.36 45.38Q287.36 49.15 275.71 55.62L275.71 55.62L275.71 55.62Q275.20 55.87 275.20 56.13L275.20 56.13L275.20 56.13Q275.20 56.38 275.33 56.38L275.33 56.38L275.33 56.38Q278.53 57.22 279.23 59.65L279.23 59.65L279.23 59.65Q280.70 58.75 282.40 57.95ZM300.13 38.66L300.13 38.66L300.13 38.66Q300.74 38.66 301.09 39.04L301.09 39.04L301.09 39.04Q301.44 39.42 301.44 40.13L301.44 40.13L301.44 40.13Q301.44 40.83 300.48 41.92L300.48 41.92L300.48 41.92Q299.52 43.01 298.82 43.01L298.82 43.01L298.82 43.01Q298.11 43.01 297.79 42.59L297.79 42.59L297.79 42.59Q297.47 42.18 297.47 41.63L297.47 41.63L297.47 41.63Q297.47 41.09 298.50 39.87L298.50 39.87L298.50 39.87Q299.52 38.66 300.13 38.66ZM304 48.45L305.41 47.30L305.41 47.30Q305.92 46.98 306.21 46.98L306.21 46.98L306.21 46.98Q306.50 46.98 306.50 47.36L306.50 47.36L306.50 47.55L306.50 47.55Q306.75 47.55 303.07 50.37L303.07 50.37L303.07 50.37Q299.39 53.18 295.20 56L295.20 56L295.20 56Q291.01 58.82 289.92 58.82L289.92 58.82L289.92 58.82Q288.06 58.82 288.06 57.28L288.06 57.28L288.06 57.28Q288.06 55.42 291.26 50.27L291.26 50.27L291.26 50.27Q294.46 45.12 295.94 45.12L295.94 45.12L295.94 45.12Q297.02 45.12 297.02 45.95L297.02 45.95L297.02 45.95Q297.02 46.78 294.08 50.50L294.08 50.50L294.08 50.50Q291.14 54.21 291.14 55.81L291.14 55.81L291.14 55.81Q291.14 56.70 291.81 56.70L291.81 56.70L291.81 56.70Q292.48 56.70 295.17 54.91L295.17 54.91L295.17 54.91Q299.97 51.71 304 48.45L304 48.45Z" transform="rotate(0 151.84795355796814 46.65999794006348)"></path><defs id="SvgjsDefs1016"></defs></svg></g><g id="SvgjsG1019" transform="rotate(0 285.15625 101.375)"><svg xmlns="http://www.w3.org/2000/svg" xmlns:xlink="http://www.w3.org/1999/xlink" width="91.4375" viewBox="1.1399999856948853 2.6700000762939453 91.44999694824219 14.450000762939453" overflow="visible" style="overflow: visible;" transform="" version="1.1" xmlns:svgjs="http://svgjs.com/svgjs" preserveAspectRatio="none" height="14.4375" x="239.4375" y="94.15625" fill="#000000" stroke="none"><path stroke="none" fill="#000000" d="M7.51 9.91L7.51 10.03L7.51 10.03Q7.51 11.89 6.69 12.97L6.69 12.97L6.69 12.97Q5.87 14.06 4.50 14.06L4.50 14.06L4.50 14.06Q2.87 14.06 2.01 12.92L2.01 12.92L2.01 16.96L1.14 16.96L1.14 5.99L1.95 5.99L1.99 7.11L1.99 7.11Q2.85 5.84 4.48 5.84L4.48 5.84L4.48 5.84Q5.90 5.84 6.71 6.92L6.71 6.92L6.71 6.92Q7.51 8.00 7.51 9.91L7.51 9.91ZM6.64 9.88L6.64 9.88L6.64 9.88Q6.64 8.36 6.01 7.49L6.01 7.49L6.01 7.49Q5.39 6.61 4.28 6.61L4.28 6.61L4.28 6.61Q3.47 6.61 2.89 6.99L2.89 6.99L2.89 6.99Q2.31 7.38 2.01 8.12L2.01 8.12L2.01 11.92L2.01 11.92Q2.32 12.60 2.91 12.96L2.91 12.96L2.91 12.96Q3.49 13.32 4.29 13.32L4.29 13.32L4.29 13.32Q5.40 13.32 6.02 12.44L6.02 12.44L6.02 12.44Q6.64 11.56 6.64 9.88ZM11.33 2.67L11.33 7.33L11.33 7.33Q11.76 6.62 12.43 6.23L12.43 6.23L12.43 6.23Q13.11 5.84 13.91 5.84L13.91 5.84L13.91 5.84Q15.18 5.84 15.80 6.56L15.80 6.56L15.80 6.56Q16.42 7.28 16.43 8.72L16.43 8.72L16.43 13.92L15.56 13.92L15.56 8.71L15.56 8.71Q15.55 7.65 15.11 7.13L15.11 7.13L15.11 7.13Q14.67 6.61 13.69 6.61L13.69 6.61L13.69 6.61Q12.88 6.61 12.25 7.12L12.25 7.12L12.25 7.12Q11.63 7.62 11.33 8.49L11.33 8.49L11.33 13.92L10.46 13.92L10.46 2.67L11.33 2.67ZM19.20 10.01L19.20 9.84L19.20 9.84Q19.20 8.69 19.65 7.78L19.65 7.78L19.65 7.78Q20.09 6.86 20.90 6.35L20.90 6.35L20.90 6.35Q21.71 5.84 22.73 5.84L22.73 5.84L22.73 5.84Q24.32 5.84 25.30 6.95L25.30 6.95L25.30 6.95Q26.28 8.06 26.28 9.90L26.28 9.90L26.28 10.08L26.28 10.08Q26.28 11.23 25.84 12.15L25.84 12.15L25.84 12.15Q25.39 13.07 24.59 13.56L24.59 13.56L24.59 13.56Q23.78 14.06 22.75 14.06L22.75 14.06L22.75 14.06Q21.17 14.06 20.19 12.95L20.19 12.95L20.19 12.95Q19.20 11.84 19.20 10.01L19.20 10.01ZM20.08 9.92L20.08 10.08L20.08 10.08Q20.08 11.50 20.82 12.41L20.82 12.41L20.82 12.41Q21.56 13.32 22.75 13.32L22.75 13.32L22.75 13.32Q23.94 13.32 24.67 12.41L24.67 12.41L24.67 12.41Q25.41 11.50 25.41 10.00L25.41 10.00L25.41 9.84L25.41 9.84Q25.41 8.93 25.07 8.17L25.07 8.17L25.07 8.17Q24.73 7.42 24.13 7.01L24.13 7.01L24.13 7.01Q23.52 6.59 22.73 6.59L22.73 6.59L22.73 6.59Q21.56 6.59 20.82 7.51L20.82 7.51L20.82 7.51Q20.08 8.43 20.08 9.92L20.08 9.92ZM29.57 3.96L30.45 3.96L30.45 5.99L32.09 5.99L32.09 6.71L30.45 6.71L30.45 11.99L30.45 11.99Q30.45 12.65 30.69 12.97L30.69 12.97L30.69 12.97Q30.93 13.29 31.48 13.29L31.48 13.29L31.48 13.29Q31.70 13.29 32.19 13.22L32.19 13.22L32.23 13.94L32.23 13.94Q31.89 14.06 31.29 14.06L31.29 14.06L31.29 14.06Q30.39 14.06 29.98 13.54L29.98 13.54L29.98 13.54Q29.57 13.02 29.57 12.00L29.57 12.00L29.57 6.71L28.11 6.71L28.11 5.99L29.57 5.99L29.57 3.96ZM34.28 10.01L34.28 9.84L34.28 9.84Q34.28 8.69 34.72 7.78L34.72 7.78L34.72 7.78Q35.16 6.86 35.97 6.35L35.97 6.35L35.97 6.35Q36.78 5.84 37.81 5.84L37.81 5.84L37.81 5.84Q39.39 5.84 40.37 6.95L40.37 6.95L40.37 6.95Q41.35 8.06 41.35 9.90L41.35 9.90L41.35 10.08L41.35 10.08Q41.35 11.23 40.91 12.15L40.91 12.15L40.91 12.15Q40.47 13.07 39.66 13.56L39.66 13.56L39.66 13.56Q38.86 14.06 37.82 14.06L37.82 14.06L37.82 14.06Q36.25 14.06 35.26 12.95L35.26 12.95L35.26 12.95Q34.28 11.84 34.28 10.01L34.28 10.01ZM35.16 9.92L35.16 10.08L35.16 10.08Q35.16 11.50 35.89 12.41L35.89 12.41L35.89 12.41Q36.63 13.32 37.82 13.32L37.82 13.32L37.82 13.32Q39.01 13.32 39.75 12.41L39.75 12.41L39.75 12.41Q40.48 11.50 40.48 10.00L40.48 10.00L40.48 9.84L40.48 9.84Q40.48 8.93 40.15 8.17L40.15 8.17L40.15 8.17Q39.81 7.42 39.20 7.01L39.20 7.01L39.20 7.01Q38.59 6.59 37.81 6.59L37.81 6.59L37.81 6.59Q36.64 6.59 35.90 7.51L35.90 7.51L35.90 7.51Q35.16 8.43 35.16 9.92L35.16 9.92ZM43.81 10.00L43.81 9.88L43.81 9.88Q43.81 8.02 44.64 6.93L44.64 6.93L44.64 6.93Q45.46 5.84 46.87 5.84L46.87 5.84L46.87 5.84Q48.49 5.84 49.33 7.13L49.33 7.13L49.38 5.99L50.20 5.99L50.20 13.75L50.20 13.75Q50.20 15.29 49.34 16.18L49.34 16.18L49.34 16.18Q48.48 17.07 47.02 17.07L47.02 17.07L47.02 17.07Q46.19 17.07 45.44 16.70L45.44 16.70L45.44 16.70Q44.69 16.33 44.26 15.72L44.26 15.72L44.75 15.19L44.75 15.19Q45.68 16.33 46.96 16.33L46.96 16.33L46.96 16.33Q48.06 16.33 48.67 15.68L48.67 15.68L48.67 15.68Q49.29 15.04 49.31 13.89L49.31 13.89L49.31 12.89L49.31 12.89Q48.47 14.06 46.86 14.06L46.86 14.06L46.86 14.06Q45.48 14.06 44.65 12.96L44.65 12.96L44.65 12.96Q43.81 11.87 43.81 10.00L43.81 10.00ZM44.70 10.03L44.70 10.03L44.70 10.03Q44.70 11.55 45.31 12.43L45.31 12.43L45.31 12.43Q45.91 13.30 47.02 13.30L47.02 13.30L47.02 13.30Q48.64 13.30 49.31 11.85L49.31 11.85L49.31 8.17L49.31 8.17Q49.00 7.40 48.43 7.01L48.43 7.01L48.43 7.01Q47.85 6.61 47.03 6.61L47.03 6.61L47.03 6.61Q45.93 6.61 45.31 7.47L45.31 7.47L45.31 7.47Q44.70 8.34 44.70 10.03ZM57.17 5.94L57.15 6.74L57.15 6.74Q56.87 6.69 56.55 6.69L56.55 6.69L56.55 6.69Q55.73 6.69 55.16 7.14L55.16 7.14L55.16 7.14Q54.60 7.60 54.35 8.47L54.35 8.47L54.35 13.92L53.48 13.92L53.48 5.99L54.34 5.99L54.35 7.25L54.35 7.25Q55.05 5.84 56.59 5.84L56.59 5.84L56.59 5.84Q56.95 5.84 57.17 5.94L57.17 5.94ZM65.18 13.92L64.24 13.92L64.24 13.92Q64.11 13.54 64.07 12.81L64.07 12.81L64.07 12.81Q63.61 13.41 62.89 13.74L62.89 13.74L62.89 13.74Q62.18 14.06 61.38 14.06L61.38 14.06L61.38 14.06Q60.24 14.06 59.53 13.43L59.53 13.43L59.53 13.43Q58.83 12.79 58.83 11.81L58.83 11.81L58.83 11.81Q58.83 10.66 59.79 9.98L59.79 9.98L59.79 9.98Q60.75 9.31 62.47 9.31L62.47 9.31L64.06 9.31L64.06 8.41L64.06 8.41Q64.06 7.56 63.54 7.07L63.54 7.07L63.54 7.07Q63.02 6.58 62.01 6.58L62.01 6.58L62.01 6.58Q61.10 6.58 60.50 7.05L60.50 7.05L60.50 7.05Q59.90 7.52 59.90 8.18L59.90 8.18L59.02 8.17L59.02 8.17Q59.02 7.23 59.90 6.54L59.90 6.54L59.90 6.54Q60.77 5.84 62.06 5.84L62.06 5.84L62.06 5.84Q63.38 5.84 64.15 6.51L64.15 6.51L64.15 6.51Q64.91 7.17 64.93 8.36L64.93 8.36L64.93 12.11L64.93 12.11Q64.93 13.26 65.18 13.83L65.18 13.83L65.18 13.92ZM61.48 13.29L61.48 13.29L61.48 13.29Q62.36 13.29 63.06 12.86L63.06 12.86L63.06 12.86Q63.75 12.44 64.06 11.73L64.06 11.73L64.06 9.98L62.50 9.98L62.50 9.98Q61.18 10.00 60.44 10.46L60.44 10.46L60.44 10.46Q59.71 10.93 59.71 11.74L59.71 11.74L59.71 11.74Q59.71 12.41 60.20 12.85L60.20 12.85L60.20 12.85Q60.69 13.29 61.48 13.29ZM74.64 9.91L74.64 10.03L74.64 10.03Q74.64 11.89 73.82 12.97L73.82 12.97L73.82 12.97Q73.00 14.06 71.63 14.06L71.63 14.06L71.63 14.06Q70.00 14.06 69.14 12.92L69.14 12.92L69.14 16.96L68.26 16.96L68.26 5.99L69.08 5.99L69.12 7.11L69.12 7.11Q69.98 5.84 71.60 5.84L71.60 5.84L71.60 5.84Q73.02 5.84 73.83 6.92L73.83 6.92L73.83 6.92Q74.64 8.00 74.64 9.91L74.64 9.91ZM73.76 9.88L73.76 9.88L73.76 9.88Q73.76 8.36 73.14 7.49L73.14 7.49L73.14 7.49Q72.52 6.61 71.41 6.61L71.41 6.61L71.41 6.61Q70.60 6.61 70.02 6.99L70.02 6.99L70.02 6.99Q69.44 7.38 69.14 8.12L69.14 8.12L69.14 11.92L69.14 11.92Q69.45 12.60 70.04 12.96L70.04 12.96L70.04 12.96Q70.62 13.32 71.42 13.32L71.42 13.32L71.42 13.32Q72.53 13.32 73.15 12.44L73.15 12.44L73.15 12.44Q73.76 11.56 73.76 9.88ZM78.46 2.67L78.46 7.33L78.46 7.33Q78.89 6.62 79.56 6.23L79.56 6.23L79.56 6.23Q80.24 5.84 81.03 5.84L81.03 5.84L81.03 5.84Q82.31 5.84 82.93 6.56L82.93 6.56L82.93 6.56Q83.55 7.28 83.56 8.72L83.56 8.72L83.56 13.92L82.69 13.92L82.69 8.71L82.69 8.71Q82.68 7.65 82.24 7.13L82.24 7.13L82.24 7.13Q81.80 6.61 80.82 6.61L80.82 6.61L80.82 6.61Q80.01 6.61 79.38 7.12L79.38 7.12L79.38 7.12Q78.76 7.62 78.46 8.49L78.46 8.49L78.46 13.92L77.58 13.92L77.58 2.67L78.46 2.67ZM86.87 5.99L89.33 12.66L91.64 5.99L92.59 5.99L89.20 15.26L89.03 15.67L89.03 15.67Q88.38 17.12 87.01 17.12L87.01 17.12L87.01 17.12Q86.70 17.12 86.34 17.01L86.34 17.01L86.33 16.29L86.79 16.33L86.79 16.33Q87.43 16.33 87.83 16.01L87.83 16.01L87.83 16.01Q88.23 15.70 88.51 14.92L88.51 14.92L88.90 13.85L85.91 5.99L86.87 5.99Z" transform="rotate(0 46.86499845981598 9.895000457763672)"></path><defs id="SvgjsDefs1018"></defs></svg></g></svg>